<svg width="16" height="16" viewBox="0 0 16 16" fill="none" xmlns="http://www.w3.org/2000/svg">
<g clip-path="url(#clip0_382_2539)">
<path d="M8 16C12.4183 16 16 12.4183 16 8C16 3.58172 12.4183 0 8 0C3.58172 0 0 3.58172 0 8C0 12.4183 3.58172 16 8 16Z" fill="#D1D1D1"/>
<path d="M3.75337 3.75337C3.03973 4.46678 2.51808 5.34907 2.23694 6.3182C1.9558 7.28732 1.9243 8.3118 2.14537 9.29637C2.17406 9.43445 2.23942 9.56225 2.33458 9.66634C2.42974 9.77043 2.55118 9.84696 2.68614 9.88788C2.8211 9.92881 2.96459 9.93263 3.10154 9.89893C3.23848 9.86523 3.36382 9.79526 3.46437 9.69637L9.69637 3.46437C9.79526 3.36382 9.86523 3.23848 9.89893 3.10154C9.93263 2.96459 9.92881 2.8211 9.88788 2.68614C9.84696 2.55118 9.77043 2.42974 9.66634 2.33458C9.56225 2.23942 9.43445 2.17406 9.29637 2.14537C8.3118 1.9243 7.28732 1.9558 6.3182 2.23694C5.34907 2.51808 4.46678 3.03973 3.75337 3.75337Z" fill="#DEDEDE"/>
<path d="M4.60938 13V3.54545H8.69034C9.39205 3.54545 10.006 3.68395 10.5323 3.96094C11.0586 4.23793 11.4679 4.62725 11.7603 5.12891C12.0527 5.63056 12.1989 6.21686 12.1989 6.88778C12.1989 7.56487 12.0481 8.15116 11.7464 8.64666C11.4479 9.14216 11.0278 9.52379 10.4862 9.79155C9.94756 10.0593 9.31818 10.1932 8.59801 10.1932H6.16051V8.19886H8.08097C8.38258 8.19886 8.63956 8.14654 8.85192 8.0419C9.06735 7.93419 9.23201 7.78184 9.34588 7.58487C9.46283 7.3879 9.52131 7.15554 9.52131 6.88778C9.52131 6.61695 9.46283 6.38613 9.34588 6.19531C9.23201 6.00142 9.06735 5.85369 8.85192 5.75213C8.63956 5.64749 8.38258 5.59517 8.08097 5.59517H7.17614V13H4.60938Z" fill="#595C65"/>
</g>
<defs>
<clipPath id="clip0_382_2539">
<rect width="16" height="16" fill="white"/>
</clipPath>
</defs>
</svg>
